REM DIRINDEX 1\4,1\2\5,1\2\6,1\3\7,1\3\8
REM DIRNAME folder01,folder02,folder03,folder04,folder05,folder06,folder07,folder08
TITLE ""
FILE "047_Day24_Check2_Phrases.mp3" MP3
  TRACK 01 AUDIO
    TITLE "0:"
    INDEX 01 00:00:00
  TRACK 02 AUDIO
    TITLE "4:cjc124_1521"
    INDEX 01 00:00:31
  TRACK 03 AUDIO
    TITLE "0:"
    INDEX 01 00:01:46
  TRACK 04 AUDIO
    TITLE "5:cjc124_1522"
    INDEX 01 00:02:04
  TRACK 05 AUDIO
    TITLE "0:"
    INDEX 01 00:03:66
  TRACK 06 AUDIO
    TITLE "6:cjc124_1523"
    INDEX 01 00:04:09
  TRACK 07 AUDIO
    TITLE "0:"
    INDEX 01 00:05:14
  TRACK 08 AUDIO
    TITLE "5:cjc124_1524"
    INDEX 01 00:05:54
  TRACK 09 AUDIO
    TITLE "0:"
    INDEX 01 00:07:19
  TRACK 10 AUDIO
    TITLE "6:cjc124_1525"
    INDEX 01 00:07:41
  TRACK 11 AUDIO
    TITLE "0:"
    INDEX 01 00:09:10
  TRACK 12 AUDIO
    TITLE "5:cjc124_1526"
    INDEX 01 00:09:47
  TRACK 13 AUDIO
    TITLE "0:"
    INDEX 01 00:11:23
  TRACK 14 AUDIO
    TITLE "6:cjc124_1527"
    INDEX 01 00:11:39
  TRACK 15 AUDIO
    TITLE "0:"
    INDEX 01 00:12:67
  TRACK 16 AUDIO
    TITLE "5:cjc124_1528"
    INDEX 01 00:13:30
  TRACK 17 AUDIO
    TITLE "0:"
    INDEX 01 00:15:13
  TRACK 18 AUDIO
    TITLE "6:cjc124_1529"
    INDEX 01 00:15:40
  TRACK 19 AUDIO
    TITLE "0:"
    INDEX 01 00:17:08
  TRACK 20 AUDIO
    TITLE "5:cjc124_1530"
    INDEX 01 00:17:47
  TRACK 21 AUDIO
    TITLE "0:"
    INDEX 01 00:19:20
  TRACK 22 AUDIO
    TITLE "6:cjc124_1531"
    INDEX 01 00:19:42
  TRACK 23 AUDIO
    TITLE "0:"
    INDEX 01 00:21:21
  TRACK 24 AUDIO
    TITLE "5:cjc124_1532"
    INDEX 01 00:21:58
  TRACK 25 AUDIO
    TITLE "0:"
    INDEX 01 00:23:34
  TRACK 26 AUDIO
    TITLE "6:cjc124_1533"
    INDEX 01 00:23:50
  TRACK 27 AUDIO
    TITLE "0:"
    INDEX 01 00:25:15
  TRACK 28 AUDIO
    TITLE "5:cjc124_1534"
    INDEX 01 00:25:50
  TRACK 29 AUDIO
    TITLE "0:"
    INDEX 01 00:27:26
  TRACK 30 AUDIO
    TITLE "6:cjc124_1535"
    INDEX 01 00:27:51
  TRACK 31 AUDIO
    TITLE "0:"
    INDEX 01 00:29:17
  TRACK 32 AUDIO
    TITLE "5:cjc124_1536"
    INDEX 01 00:29:58
  TRACK 33 AUDIO
    TITLE "0:"
    INDEX 01 00:31:14
  TRACK 34 AUDIO
    TITLE "6:cjc124_1537"
    INDEX 01 00:31:39
  TRACK 35 AUDIO
    TITLE "0:"
    INDEX 01 00:32:72
  TRACK 36 AUDIO
    TITLE "5:cjc124_1538"
    INDEX 01 00:33:38
  TRACK 37 AUDIO
    TITLE "0:"
    INDEX 01 00:34:61
  TRACK 38 AUDIO
    TITLE "6:cjc124_1539"
    INDEX 01 00:35:15
  TRACK 39 AUDIO
    TITLE "0:"
    INDEX 01 00:36:64
  TRACK 40 AUDIO
    TITLE "5:cjc124_1540"
    INDEX 01 00:37:30
  TRACK 41 AUDIO
    TITLE "0:"
    INDEX 01 00:38:73
  TRACK 42 AUDIO
    TITLE "6:cjc124_1541"
    INDEX 01 00:39:15
  TRACK 43 AUDIO
    TITLE "0:"
    INDEX 01 00:40:11
  TRACK 44 AUDIO
    TITLE "5:cjc124_1542"
    INDEX 01 00:40:52
  TRACK 45 AUDIO
    TITLE "0:"
    INDEX 01 00:42:21
  TRACK 46 AUDIO
    TITLE "6:cjc124_1543"
    INDEX 01 00:42:35
  TRACK 47 AUDIO
    TITLE "0:"
    INDEX 01 00:44:05
  TRACK 48 AUDIO
    TITLE "5:cjc124_1544"
    INDEX 01 00:44:48
  TRACK 49 AUDIO
    TITLE "0:"
    INDEX 01 00:46:45
  TRACK 50 AUDIO
    TITLE "6:cjc124_1545"
    INDEX 01 00:46:62
  TRACK 51 AUDIO
    TITLE "0:"
    INDEX 01 00:48:34
  TRACK 52 AUDIO
    TITLE "5:cjc124_1546"
    INDEX 01 00:48:71
  TRACK 53 AUDIO
    TITLE "0:"
    INDEX 01 00:50:70
  TRACK 54 AUDIO
    TITLE "6:cjc124_1547"
    INDEX 01 00:51:11
  TRACK 55 AUDIO
    TITLE "0:"
    INDEX 01 00:52:43
  TRACK 56 AUDIO
    TITLE "5:cjc124_1548"
    INDEX 01 00:53:06
  TRACK 57 AUDIO
    TITLE "0:"
    INDEX 01 00:54:68
  TRACK 58 AUDIO
    TITLE "6:cjc124_1549"
    INDEX 01 00:55:10
  TRACK 59 AUDIO
    TITLE "0:"
    INDEX 01 00:56:41
  TRACK 60 AUDIO
    TITLE "5:cjc124_1550"
    INDEX 01 00:57:03
  TRACK 61 AUDIO
    TITLE "0:"
    INDEX 01 00:58:26
  TRACK 62 AUDIO
    TITLE "6:cjc124_1551"
    INDEX 01 00:58:52
  TRACK 63 AUDIO
    TITLE "0:"
    INDEX 01 01:00:02
  TRACK 64 AUDIO
    TITLE "5:cjc124_1552"
    INDEX 01 01:00:41
  TRACK 65 AUDIO
    TITLE "0:"
    INDEX 01 01:02:26
  TRACK 66 AUDIO
    TITLE "6:cjc124_1553"
    INDEX 01 01:02:40
  TRACK 67 AUDIO
    TITLE "0:"
    INDEX 01 01:04:25
